<svg width="113" height="22" viewBox="0 0 113 22" fill="none" xmlns="http://www.w3.org/2000/svg">
<g clip-path="url(#clip0)">
<rect width="113" height="22" fill="#C4C4C4" fill-opacity="0.01"/>
<path d="M11.208 16.36C9.672 16.36 8.832 15.268 8.688 13.084H5.592C5.352 13.636 5.148 14.152 4.98 14.632L4.512 16H1.992L7.662 4.12H11.532L12.288 12.868C12.408 14.128 12.708 14.944 13.188 15.316C12.84 16.012 12.18 16.36 11.208 16.36ZM6.15 11.77H8.634L8.418 7.144V6.658L7.14 9.484L6.15 11.77ZM19.6216 9.682C19.7896 9.238 19.8736 8.824 19.8736 8.44C19.8736 7.732 19.5856 7.378 19.0096 7.378C18.7096 7.378 18.4336 7.516 18.1816 7.792C17.9416 8.056 17.8216 8.356 17.8216 8.692C17.8216 8.932 17.9176 9.148 18.1096 9.34C18.3856 9.604 18.8776 9.952 19.5856 10.384C20.2936 10.816 20.7796 11.212 21.0436 11.572C21.3196 11.92 21.4576 12.34 21.4576 12.832C21.4576 13.312 21.3376 13.774 21.0976 14.218C20.8696 14.662 20.5456 15.04 20.1256 15.352C19.2256 16.024 18.0556 16.36 16.6156 16.36C15.8356 16.36 15.1456 16.156 14.5456 15.748C13.9456 15.352 13.6456 14.92 13.6456 14.452C13.6456 13.984 13.8136 13.612 14.1496 13.336C14.4976 13.06 14.9236 12.922 15.4276 12.922C15.9316 12.922 16.3396 13.018 16.6516 13.21C16.4956 13.606 16.4176 13.936 16.4176 14.2C16.4176 14.992 16.7536 15.388 17.4256 15.388C17.7136 15.388 17.9536 15.298 18.1456 15.118C18.3376 14.938 18.4336 14.692 18.4336 14.38C18.4336 13.768 17.9176 13.138 16.8856 12.49C16.0456 11.938 15.5296 11.554 15.3376 11.338C15.0136 10.954 14.8516 10.522 14.8516 10.042C14.8516 9.562 14.9656 9.094 15.1936 8.638C15.4216 8.182 15.7456 7.792 16.1656 7.468C17.0416 6.796 18.2416 6.46 19.7656 6.46C20.5456 6.46 21.1636 6.616 21.6196 6.928C22.0876 7.24 22.3216 7.66 22.3216 8.188C22.3216 8.716 22.1596 9.13 21.8356 9.43C21.5236 9.73 21.0796 9.88 20.5036 9.88C20.1076 9.88 19.8136 9.814 19.6216 9.682ZM32.3895 12.274C32.7015 12.502 32.8575 12.862 32.8575 13.354C32.8575 13.834 32.7495 14.248 32.5335 14.596C32.3295 14.932 32.0235 15.232 31.6155 15.496C30.7395 16.06 29.5335 16.342 27.9975 16.342C26.4735 16.342 25.2915 15.946 24.4515 15.154C23.6235 14.35 23.2095 13.24 23.2095 11.824C23.2095 9.82 23.7315 8.056 24.7755 6.532C25.5675 5.404 26.6715 4.6 28.0875 4.12C28.8195 3.88 29.5455 3.76 30.2655 3.76C30.9855 3.76 31.5675 3.808 32.0115 3.904C32.4555 4 32.8455 4.144 33.1815 4.336C33.9135 4.756 34.2795 5.302 34.2795 5.974C34.2795 6.586 33.9915 7.12 33.4155 7.576C32.8875 7.984 32.4075 8.188 31.9755 8.188C31.5435 8.188 31.2375 8.158 31.0575 8.098C31.1055 7.666 31.1295 7.312 31.1295 7.036C31.1295 6.748 31.1235 6.502 31.1115 6.298C31.0995 6.094 31.0635 5.896 31.0035 5.704C30.8835 5.26 30.6375 5.038 30.2655 5.038C29.9055 5.038 29.5395 5.212 29.1675 5.56C28.8075 5.896 28.4715 6.352 28.1595 6.928C27.4515 8.236 27.0975 9.664 27.0975 11.212C27.0975 11.956 27.3075 12.544 27.7275 12.976C28.1475 13.396 28.8075 13.606 29.7075 13.606C30.3795 13.606 31.0335 13.384 31.6695 12.94C31.9455 12.748 32.1855 12.526 32.3895 12.274ZM35.123 15.46C34.847 15.148 34.643 14.746 34.511 14.254C34.391 13.762 34.331 13.114 34.331 12.31C34.331 11.506 34.469 10.738 34.745 10.006C35.021 9.274 35.411 8.644 35.915 8.116C36.947 7.012 38.315 6.46 40.019 6.46C40.631 6.46 41.159 6.562 41.603 6.766L44.681 6.46L43.349 13.48C43.313 13.624 43.295 13.828 43.295 14.092C43.295 14.356 43.373 14.572 43.529 14.74C43.697 14.908 43.901 15.004 44.141 15.028C44.021 15.436 43.739 15.76 43.295 16C42.863 16.24 42.401 16.36 41.909 16.36C41.417 16.36 41.003 16.264 40.667 16.072C40.343 15.892 40.133 15.646 40.037 15.334C39.845 15.634 39.545 15.88 39.137 16.072C38.729 16.264 38.249 16.36 37.697 16.36C37.157 16.36 36.665 16.288 36.221 16.144C35.777 16 35.411 15.772 35.123 15.46ZM38.921 8.152C38.789 8.368 38.663 8.662 38.543 9.034C38.423 9.394 38.261 10.066 38.057 11.05C37.865 12.022 37.769 12.856 37.769 13.552C37.769 14.248 37.823 14.698 37.931 14.902C38.039 15.106 38.189 15.208 38.381 15.208C38.765 15.208 39.095 15.028 39.371 14.668C39.659 14.296 39.857 13.786 39.965 13.138L40.919 7.864C40.667 7.648 40.391 7.54 40.091 7.54C39.803 7.54 39.569 7.588 39.389 7.684C39.221 7.78 39.065 7.936 38.921 8.152ZM51.2857 10.942C51.7177 10.174 51.9337 9.4 51.9337 8.62C51.9337 8.104 51.7477 7.846 51.3757 7.846C51.0877 7.846 50.7937 8.092 50.4937 8.584C50.1817 9.076 49.9777 9.64 49.8817 10.276L48.9457 16L45.2197 16.36L47.0557 6.82L50.0257 6.46L49.7017 8.278C50.2897 7.066 51.2437 6.46 52.5637 6.46C53.2597 6.46 53.7937 6.64 54.1657 7C54.5497 7.36 54.7417 7.912 54.7417 8.656C54.7417 9.388 54.4957 9.988 54.0037 10.456C53.5237 10.924 52.8697 11.158 52.0417 11.158C51.6817 11.158 51.4297 11.086 51.2857 10.942ZM60.6724 10.942C61.1044 10.174 61.3204 9.4 61.3204 8.62C61.3204 8.104 61.1344 7.846 60.7624 7.846C60.4744 7.846 60.1804 8.092 59.8804 8.584C59.5684 9.076 59.3644 9.64 59.2684 10.276L58.3324 16L54.6064 16.36L56.4424 6.82L59.4124 6.46L59.0884 8.278C59.6764 7.066 60.6304 6.46 61.9504 6.46C62.6464 6.46 63.1804 6.64 63.5524 7C63.9364 7.36 64.1284 7.912 64.1284 8.656C64.1284 9.388 63.8824 9.988 63.3904 10.456C62.9104 10.924 62.2564 11.158 61.4284 11.158C61.0684 11.158 60.8164 11.086 60.6724 10.942ZM71.7151 12.958C72.0151 13.162 72.1651 13.492 72.1651 13.948C72.1651 14.392 72.0511 14.758 71.8231 15.046C71.5951 15.334 71.2951 15.574 70.9231 15.766C70.1551 16.162 69.3571 16.36 68.5291 16.36C67.7011 16.36 67.0411 16.27 66.5491 16.09C66.0691 15.91 65.6671 15.652 65.3431 15.316C64.7071 14.68 64.3891 13.78 64.3891 12.616C64.3891 10.804 64.8811 9.346 65.8651 8.242C66.9211 7.054 68.3671 6.46 70.2031 6.46C71.3431 6.46 72.1951 6.7 72.7591 7.18C73.1791 7.54 73.3891 8.014 73.3891 8.602C73.3891 10.714 71.5651 11.77 67.9171 11.77C67.8691 12.082 67.8451 12.37 67.8451 12.634C67.8451 13.186 67.9651 13.57 68.2051 13.786C68.4571 13.99 68.8111 14.092 69.2671 14.092C69.7231 14.092 70.1911 13.99 70.6711 13.786C71.1631 13.57 71.5111 13.294 71.7151 12.958ZM68.0431 10.996C68.8951 10.996 69.5671 10.732 70.0591 10.204C70.5511 9.7 70.7971 9.046 70.7971 8.242C70.7971 7.966 70.7431 7.756 70.6351 7.612C70.5391 7.456 70.3891 7.378 70.1851 7.378C69.9811 7.378 69.7891 7.42 69.6091 7.504C69.4411 7.576 69.2671 7.744 69.0871 8.008C68.6431 8.608 68.2951 9.604 68.0431 10.996ZM74.2932 14.2C74.2932 13.876 74.3772 13.306 74.5452 12.49L75.4992 7.63H74.4372L74.5092 7.09C75.9492 6.658 77.3652 5.914 78.7572 4.858H79.6212L79.1892 6.82H80.5932L80.4312 7.63H79.0452L78.1272 12.49C77.9712 13.234 77.8932 13.732 77.8932 13.984C77.8932 14.56 78.1452 14.908 78.6492 15.028C78.5292 15.436 78.2532 15.76 77.8212 16C77.3892 16.24 76.8672 16.36 76.2552 16.36C75.6432 16.36 75.1632 16.168 74.8152 15.784C74.4672 15.4 74.2932 14.872 74.2932 14.2ZM87.7288 12.958C88.0288 13.162 88.1788 13.492 88.1788 13.948C88.1788 14.392 88.0648 14.758 87.8368 15.046C87.6088 15.334 87.3088 15.574 86.9368 15.766C86.1688 16.162 85.3708 16.36 84.5428 16.36C83.7148 16.36 83.0548 16.27 82.5628 16.09C82.0828 15.91 81.6808 15.652 81.3568 15.316C80.7208 14.68 80.4028 13.78 80.4028 12.616C80.4028 10.804 80.8948 9.346 81.8788 8.242C82.9348 7.054 84.3808 6.46 86.2168 6.46C87.3568 6.46 88.2088 6.7 88.7728 7.18C89.1928 7.54 89.4028 8.014 89.4028 8.602C89.4028 10.714 87.5788 11.77 83.9308 11.77C83.8828 12.082 83.8588 12.37 83.8588 12.634C83.8588 13.186 83.9788 13.57 84.2188 13.786C84.4708 13.99 84.8248 14.092 85.2808 14.092C85.7368 14.092 86.2048 13.99 86.6848 13.786C87.1768 13.57 87.5248 13.294 87.7288 12.958ZM84.0568 10.996C84.9088 10.996 85.5808 10.732 86.0728 10.204C86.5648 9.7 86.8108 9.046 86.8108 8.242C86.8108 7.966 86.7568 7.756 86.6488 7.612C86.5528 7.456 86.4028 7.378 86.1988 7.378C85.9948 7.378 85.8028 7.42 85.6228 7.504C85.4548 7.576 85.2808 7.744 85.1008 8.008C84.6568 8.608 84.3088 9.604 84.0568 10.996ZM95.6529 10.942C96.0849 10.174 96.3009 9.4 96.3009 8.62C96.3009 8.104 96.1149 7.846 95.7429 7.846C95.4549 7.846 95.1609 8.092 94.8609 8.584C94.5489 9.076 94.3449 9.64 94.2489 10.276L93.3129 16L89.5869 16.36L91.4229 6.82L94.3929 6.46L94.0689 8.278C94.6569 7.066 95.6109 6.46 96.9309 6.46C97.6269 6.46 98.1609 6.64 98.5329 7C98.9169 7.36 99.1089 7.912 99.1089 8.656C99.1089 9.388 98.8629 9.988 98.3709 10.456C97.8909 10.924 97.2369 11.158 96.4089 11.158C96.0489 11.158 95.7969 11.086 95.6529 10.942ZM100.18 15.46C99.9036 15.148 99.6996 14.746 99.5676 14.254C99.4476 13.762 99.3876 13.114 99.3876 12.31C99.3876 11.506 99.5256 10.738 99.8016 10.006C100.078 9.274 100.468 8.644 100.972 8.116C102.004 7.012 103.372 6.46 105.076 6.46C105.688 6.46 106.216 6.562 106.66 6.766L109.738 6.46L108.406 13.48C108.37 13.624 108.352 13.828 108.352 14.092C108.352 14.356 108.43 14.572 108.586 14.74C108.754 14.908 108.958 15.004 109.198 15.028C109.078 15.436 108.796 15.76 108.352 16C107.92 16.24 107.458 16.36 106.966 16.36C106.474 16.36 106.06 16.264 105.724 16.072C105.4 15.892 105.19 15.646 105.094 15.334C104.902 15.634 104.602 15.88 104.194 16.072C103.786 16.264 103.306 16.36 102.754 16.36C102.214 16.36 101.722 16.288 101.278 16.144C100.834 16 100.468 15.772 100.18 15.46ZM103.978 8.152C103.846 8.368 103.72 8.662 103.6 9.034C103.48 9.394 103.318 10.066 103.114 11.05C102.922 12.022 102.826 12.856 102.826 13.552C102.826 14.248 102.88 14.698 102.988 14.902C103.096 15.106 103.246 15.208 103.438 15.208C103.822 15.208 104.152 15.028 104.428 14.668C104.716 14.296 104.914 13.786 105.022 13.138L105.976 7.864C105.724 7.648 105.448 7.54 105.148 7.54C104.86 7.54 104.626 7.588 104.446 7.684C104.278 7.78 104.122 7.936 103.978 8.152Z" fill="url(#paint0_linear)"/>
</g>
<defs>
<linearGradient id="paint0_linear" x1="58.7042" y1="6" x2="59.4113" y2="21.0042" gradientUnits="userSpaceOnUse">
<stop stop-color="#0066FF"/>
<stop offset="1" stop-color="#03FFA4"/>
</linearGradient>
<clipPath id="clip0">
<rect width="113" height="22" fill="white"/>
</clipPath>
</defs>
</svg>
